<svg width="32" height="32" viewBox="0 0 32 32" fill="none" xmlns="http://www.w3.org/2000/svg">
<g clip-path="url(#clip0_2_18)">
<mask id="path-1-outside-1_2_18" maskUnits="userSpaceOnUse" x="0" y="0" width="32" height="32" fill="black">
<rect fill="white" width="32" height="32"/>
<path d="M0 3C0 1.34315 1.34315 0 3 0H29C30.6569 0 32 1.34315 32 3V27C32 28.6569 30.6569 30 29 30H3C1.34315 30 0 28.6569 0 27V3Z"/>
</mask>
<path d="M0 3C0 1.34315 1.34315 0 3 0H29C30.6569 0 32 1.34315 32 3V27C32 28.6569 30.6569 30 29 30H3C1.34315 30 0 28.6569 0 27V3Z" fill="url(#paint0_linear_2_18)"/>
<path d="M0 0H32H0ZM32 27C32 29.7614 29.7614 32 27 32H5C2.23858 32 0 29.7614 0 27C0 27.5523 1.34315 28 3 28H29C30.6569 28 32 27.5523 32 27ZM0 30V0V30ZM32 0V30V0Z" fill="#620040" mask="url(#path-1-outside-1_2_18)"/>
<g clip-path="url(#clip1_2_18)">
<path d="M23.14 7H9.38V15H23.14V7Z" stroke="white" stroke-width="3" stroke-linecap="round" stroke-linejoin="round"/>
<path d="M8.32001 26L10.92 15" stroke="white" stroke-width="3" stroke-linecap="round" stroke-linejoin="round"/>
<path d="M24.22 26L21.62 15" stroke="white" stroke-width="3" stroke-linecap="round" stroke-linejoin="round"/>
<path d="M16.1 3.5L7.5 6.5H24.72L16.1 3.5Z" stroke="white" stroke-width="3" stroke-linecap="round" stroke-linejoin="round"/>
<path d="M23.16 15L8.32001 26" stroke="white" stroke-width="3" stroke-linecap="round" stroke-linejoin="round"/>
<path d="M9.38 15L24.22 26" stroke="white" stroke-width="3" stroke-linecap="round" stroke-linejoin="round"/>
</g>
</g>
<defs>
<linearGradient id="paint0_linear_2_18" x1="18.0854" y1="-1.49003" x2="34.0691" y2="26.7682" gradientUnits="userSpaceOnUse">
<stop stop-color="#FC8B61"/>
<stop offset="0.5" stop-color="#FC5F64"/>
<stop offset="1" stop-color="#F32474"/>
</linearGradient>
<clipPath id="clip0_2_18">
<rect width="32" height="32" fill="white"/>
</clipPath>
<clipPath id="clip1_2_18">
<rect width="20.22" height="25.5" fill="white" transform="translate(6 2)"/>
</clipPath>
</defs>
</svg>
